{"title":"Nikita.S02E19.HDTV.XviD-Junio2","uid":7202538,"size":284593446,"categoryP":"video","categoryS":"tv_shows","magnet":"?xt=urn:btih:8b339aadf4249b83cd7c362d6cc324692ec60a65&amp;dn=Nikita.S02E19.HDTV.XviD-Junio2&amp;tr=udp%3A%2F%2Ftracker.openbittorrent.com%3A80&amp;tr=udp%3A%2F%2Fopen.demonii.com%3A1337&amp;tr=udp%3A%2F%2Ftracker.coppersurfer.tk%3A6969&amp;tr=udp%3A%2F%2Fexodus.desync.com%3A6969","seeders":0,"leechers":0,"uploader":"junio_tk2","files":-1,"time":1334980964,"description":"Format                           : AVI\nFormat/Info                      : Audio Video Interleave\nFile size                        : 271 MiB\nDuration                         : 42mn 1s\nOverall bit rate                 : 903 Kbps\nWriting application              : MEncoder r34118-4.2.5\nWriting library                  : MPlayer\n\nVideo\nID                               : 0\nFormat                           : MPEG-4 Visual\nFormat profile                   : Simple@L3\nFormat settings, BVOP            : No\nFormat settings, QPel            : No\nFormat settings, GMC             : No warppoints\nFormat settings, Matrix          : Default (H.263)\nCodec ID                         : XVID\nCodec ID/Hint                    : XviD\nDuration                         : 42mn 1s\nBit rate                         : 768 Kbps\nWidth                            : 720 pixels\nHeight                           : 404 pixels\nDisplay aspect ratio             : 16:9\nFrame rate                       : 23.976 fps\nColor space                      : YUV\nChroma subsampling               : 4:2:0\nBit depth                        : 8 bits\nScan type                        : Progressive\nCompression mode                 : Lossy\nBits/(Pixel*Frame)               : 0.110\nStream size                      : 231 MiB (85%)\nWriting library                  : XviD 63\n\nAudio\nID                               : 1\nFormat                           : MPEG Audio\nFormat version                   : Version 1\nFormat profile                   : Layer 3\nMode                             : Joint stereo\nMode extension                   : MS Stereo\nCodec ID                         : 55\nCodec ID/Hint                    : MP3\nDuration                         : 42mn 1s\nBit rate mode                    : Variable\nBit rate                         : 123 Kbps\nChannel(s)                       : 2 channels\nSampling rate                    : 44.1 KHz\nCompression mode                 : Lossy\nStream size                      : 36.8 MiB (14%)\nAlignment                        : Aligned on interleaves\nInterleave, duration             : 26 ms (0.63 video frame)\nInterleave, preload duration     : 537 ms\n\n","torrent":{"xt":"urn:btih:8b339aadf4249b83cd7c362d6cc324692ec60a65","amp;dn":"Nikita.S02E19.HDTV.XviD-Junio2","amp;tr":["udp%3A%2F%2Ftracker.openbittorrent.com%3A80","udp%3A%2F%2Fopen.demonii.com%3A1337","udp%3A%2F%2Ftracker.coppersurfer.tk%3A6969","udp%3A%2F%2Fexodus.desync.com%3A6969"],"infoHash":"8b339aadf4249b83cd7c362d6cc324692ec60a65","infoHashBuffer":{"type":"Buffer","data":[139,51,154,173,244,36,155,131,205,124,54,45,108,195,36,105,46,198,10,101]},"announce":[],"urlList":[]}}